<svg width="73" height="73" viewBox="0 0 73 73" fill="none" xmlns="http://www.w3.org/2000/svg">
<g id="icon logo">
<path id="Vector" d="M29 14C24.2279 14.0057 19.6529 15.8701 16.2785 19.1842C12.9041 22.4984 11.0058 26.9917 11 31.6786C10.9944 35.5088 12.2684 39.2351 14.6267 42.2857C14.6267 42.2857 15.1176 42.9197 15.1965 43.0117L29 59L42.8093 43.0047C42.8819 42.9191 43.3733 42.2851 43.3733 42.2851L43.3758 42.2812C45.7326 39.2317 47.0058 35.5071 47 31.6786C46.9942 26.9917 45.0959 22.4984 41.7215 19.1842C38.3471 15.8701 33.7721 14.0057 29 14ZM35.8906 32.8069L29.0033 39.7143L22.1094 32.8069C21.2812 31.9677 20.818 30.8447 20.818 29.6759C20.818 28.5071 21.2812 27.3842 22.1094 26.5449C22.5153 26.1351 23.0008 25.8094 23.537 25.587C24.0733 25.3646 24.6494 25.25 25.2315 25.25C25.8136 25.25 26.3898 25.3646 26.9261 25.587C27.4623 25.8094 27.9477 26.1351 28.3536 26.5449L29.0033 27.1969L29.6464 26.5449C30.0523 26.1351 30.5377 25.8094 31.0739 25.587C31.6102 25.3646 32.1864 25.25 32.7685 25.25C33.3506 25.25 33.9268 25.3646 34.463 25.587C34.9992 25.8094 35.4846 26.1351 35.8906 26.5449C36.7188 27.3842 37.182 28.5071 37.182 29.6759C37.182 30.8447 36.7188 31.9677 35.8906 32.8069Z" fill="#FF4079"/>
<path id="Vector_2" d="M29 14C24.2279 14.0057 19.6529 15.8701 16.2785 19.1842C12.9041 22.4984 11.0058 26.9917 11 31.6786C10.9944 35.5088 12.2684 39.2351 14.6267 42.2857C14.6267 42.2857 15.1176 42.9197 15.1965 43.0117L29 59L42.8093 43.0047C42.8819 42.9191 43.3733 42.2851 43.3733 42.2851L43.3758 42.2812C45.7326 39.2317 47.0058 35.5071 47 31.6786C46.9942 26.9917 45.0959 22.4984 41.7215 19.1842C38.3471 15.8701 33.7721 14.0057 29 14ZM35.8906 32.8069L29.0033 39.7143L22.1094 32.8069C21.2812 31.9677 20.818 30.8447 20.818 29.6759C20.818 28.5071 21.2812 27.3842 22.1094 26.5449C22.5153 26.1351 23.0008 25.8094 23.537 25.587C24.0733 25.3646 24.6494 25.25 25.2315 25.25C25.8136 25.25 26.3898 25.3646 26.9261 25.587C27.4623 25.8094 27.9477 26.1351 28.3536 26.5449L29.0033 27.1969L29.6464 26.5449C30.0523 26.1351 30.5377 25.8094 31.0739 25.587C31.6102 25.3646 32.1864 25.25 32.7685 25.25C33.3506 25.25 33.9268 25.3646 34.463 25.587C34.9992 25.8094 35.4846 26.1351 35.8906 26.5449C36.7188 27.3842 37.182 28.5071 37.182 29.6759C37.182 30.8447 36.7188 31.9677 35.8906 32.8069Z" fill="#FF4079"/>
</g>
</svg>
