<svg width="173" height="170" viewBox="0 0 173 170" fill="none" xmlns="http://www.w3.org/2000/svg">
<g id="icone rodap&#195;&#169;">
<path id="Vector" d="M86.5 10.625C70.8249 10.6438 55.7973 16.8067 44.7134 27.7618C33.6294 38.7168 27.3941 53.5697 27.375 69.0625C27.3565 81.7236 31.5414 94.041 39.2876 104.125C39.2876 104.125 40.9001 106.221 41.1592 106.525L86.5 159.375L131.86 106.502C132.098 106.219 133.712 104.123 133.712 104.123L133.72 104.11C141.462 94.0299 145.644 81.7178 145.625 69.0625C145.606 53.5697 139.371 38.7168 128.287 27.7618C117.203 16.8067 102.175 10.6438 86.5 10.625ZM109.134 72.7924L86.5108 95.625L63.8664 72.7924C61.1458 70.0181 59.6244 66.3062 59.6244 62.4426C59.6244 58.579 61.1458 54.8671 63.8664 52.0928C65.1997 50.7382 66.7942 49.6616 68.5556 48.9264C70.317 48.1912 72.2096 47.8124 74.1217 47.8124C76.0337 47.8124 77.9263 48.1912 79.6877 48.9264C81.4491 49.6616 83.0436 50.7382 84.3769 52.0928L86.5108 54.2481L88.6231 52.0928C89.9564 50.7382 91.5509 49.6616 93.3123 48.9264C95.0737 48.1912 96.9663 47.8124 98.8784 47.8124C100.79 47.8124 102.683 48.1912 104.444 48.9264C106.206 49.6616 107.8 50.7382 109.134 52.0928C111.854 54.8671 113.376 58.579 113.376 62.4426C113.376 66.3062 111.854 70.0181 109.134 72.7924Z" fill="#FF4079"/>
</g>
</svg>
