<svg width="31" height="30" viewBox="0 0 31 30" fill="none" xmlns="http://www.w3.org/2000/svg">
<g id="seta">
<path id="Vector" d="M6.45835 16.2091H21.7775L17.0888 21.4775C16.9802 21.5997 16.8984 21.7407 16.8481 21.8924C16.7978 22.0441 16.7799 22.2037 16.7955 22.3619C16.827 22.6814 16.9929 22.9761 17.2567 23.1812C17.5205 23.3863 17.8605 23.485 18.2021 23.4555C18.5436 23.4261 18.8587 23.2709 19.0779 23.0241L25.5363 15.7741C25.5797 15.7165 25.6186 15.6559 25.6525 15.5929C25.6525 15.5325 25.7171 15.4962 25.7429 15.4358C25.8015 15.2973 25.8321 15.1498 25.8334 15.0008C25.8321 14.8518 25.8015 14.7044 25.7429 14.5658C25.7429 14.5054 25.6784 14.4691 25.6525 14.4087C25.6186 14.3457 25.5797 14.2851 25.5363 14.2275L19.0779 6.97748C18.9565 6.84108 18.8044 6.73139 18.6325 6.65621C18.4606 6.58102 18.2731 6.54219 18.0834 6.54248C17.7816 6.54193 17.4891 6.64026 17.2567 6.8204C17.1259 6.92184 17.0178 7.04642 16.9385 7.187C16.8593 7.32759 16.8105 7.48142 16.7949 7.63968C16.7793 7.79795 16.7972 7.95753 16.8476 8.10931C16.8981 8.26108 16.98 8.40205 17.0888 8.52415L21.7775 13.7925H6.45835C6.11578 13.7925 5.78724 13.9198 5.54501 14.1464C5.30277 14.373 5.16669 14.6803 5.16669 15.0008C5.16669 15.3213 5.30277 15.6286 5.54501 15.8552C5.78724 16.0818 6.11578 16.2091 6.45835 16.2091Z" fill="black"/>
</g>
</svg>
