<svg width="76" height="32" viewBox="0 0 76 32" fill="none" xmlns="http://www.w3.org/2000/svg">
<g id="social media">
<g id="&#240;&#159;&#166;&#134; icon &#34;social facebook&#34;">
<path id="Vector" d="M28.8947 1H1.688C0.755649 1 0 1.75565 0 2.688V29.8952C0 30.8271 0.755649 31.5827 1.688 31.5827H16.335V19.7396H12.3495V15.1241H16.335V11.7201C16.335 7.76983 18.7476 5.61927 22.2715 5.61927C23.9594 5.61927 25.41 5.74457 25.8331 5.80106V9.92931L23.389 9.93058C21.4725 9.93058 21.1017 10.8413 21.1017 12.1776V15.1245H25.6721L25.077 19.74H21.1017V31.5827H28.8952C29.8271 31.5827 30.5827 30.8271 30.5827 29.8947V2.688C30.5827 1.75565 29.8271 1 28.8947 1Z" fill="#FF4079"/>
</g>
<g id="&#240;&#159;&#166;&#134; icon &#34;social instagram&#34;">
<g id="Group">
<path id="Vector_2" d="M67.9205 13.5021C67.9205 17.7153 64.505 21.1308 60.2918 21.1308C56.0786 21.1308 52.6631 17.7153 52.6631 13.5021C52.6631 12.3149 52.9422 11.1957 53.4256 10.1941H45V28.034C45 29.6693 46.338 31.0073 47.9734 31.0073H72.6094C74.2448 31.0073 75.5828 29.6693 75.5828 28.034V10.1941H67.1576C67.6414 11.1957 67.9205 12.3149 67.9205 13.5021Z" fill="#FF4079"/>
<path id="Vector_3" d="M72.6094 0H47.9733C46.338 0 45 1.33799 45 2.97332V8.91996H54.2024C55.5948 7.07268 57.8001 5.87358 60.2914 5.87358C62.7826 5.87358 64.9879 7.07268 66.3803 8.91996H75.5827V2.97332C75.5827 1.33799 74.2447 0 72.6094 0ZM47.4449 7.52505H46.338V3.2371C46.338 2.48697 46.795 1.84431 47.4453 1.57119L47.4449 7.52505ZM49.2586 7.52505H48.2099V1.43059H49.2586V7.52505ZM51.0719 7.52505H50.0232V1.43059H51.0719V7.52505ZM52.884 3.2371V5.71855V7.52505H51.8365V1.43059H52.884V3.2371ZM74.0328 5.71855C74.0328 6.71673 73.224 7.52505 72.2271 7.52505H69.2925C68.2951 7.52505 67.4864 6.71673 67.4864 5.71855V3.2371C67.4864 2.23891 68.2951 1.43059 69.2925 1.43059H72.2271C73.2245 1.43059 74.0328 2.23891 74.0328 3.2371V5.71855Z" fill="#FF4079"/>
<path id="Vector_4" d="M60.2918 20.239C64.0026 20.239 67.0107 17.2296 67.0107 13.5198C67.0107 9.80947 64.003 6.80005 60.2918 6.80005C56.5803 6.80005 53.5721 9.80947 53.5721 13.5198C53.5721 17.2292 56.5803 20.239 60.2918 20.239ZM60.2914 8.16608C63.2478 8.16608 65.6451 10.563 65.6451 13.5198C65.6451 16.4761 63.2482 18.8734 60.2914 18.8734C57.3347 18.8734 54.9377 16.4765 54.9377 13.5198C54.9382 10.5626 57.3351 8.16608 60.2914 8.16608Z" fill="#FF4079"/>
</g>
</g>
</g>
</svg>
